<?xml version="1.0" encoding="UTF-8"?>
<svg width="24px" height="24px" viewBox="0 0 24 24" version="1.1" xmlns="http://www.w3.org/2000/svg">
    <g stroke="none" stroke-width="1" fill="none" fill-rule="evenodd">
        <path d="M16,8 C17.1045695,8 18,7.1045695 18,6 C18,4.8954305 17.1045695,4 16,4 C14.8954305,4 14,4.8954305 14,6 C14,7.1045695 14.8954305,8 16,8 Z M8,13 C9.1045695,13 10,12.1045695 10,11 C10,9.8954305 9.1045695,9 8,9 C6.8954305,9 6,9.8954305 6,11 C6,12.1045695 6.8954305,13 8,13 Z M16,18 C17.1045695,18 18,17.1045695 18,16 C18,14.8954305 17.1045695,14 16,14 C14.8954305,14 14,14.8954305 14,16 C14,17.1045695 14.8954305,18 16,18 Z M8.5,11.5 L15.5,15.5 M15.5,6.5 L8.5,10.5" stroke="#007AFF" stroke-width="2" stroke-linecap="round"/>
    </g>
</svg>
